<svg width="51" height="24" viewBox="0 0 51 24" fill="none" xmlns="http://www.w3.org/2000/svg">
<path d="M15.3281 20.6875V23.0625H0.4375V20.9844L7.89062 12.6875C8.80729 11.6667 9.51562 10.8021 10.0156 10.0938C10.526 9.375 10.8802 8.73438 11.0781 8.17188C11.2865 7.59896 11.3906 7.01562 11.3906 6.42188C11.3906 5.67188 11.2344 4.99479 10.9219 4.39062C10.6198 3.77604 10.1719 3.28646 9.57812 2.92188C8.98438 2.55729 8.26562 2.375 7.42188 2.375C6.41146 2.375 5.56771 2.57292 4.89062 2.96875C4.22396 3.35417 3.72396 3.89583 3.39062 4.59375C3.05729 5.29167 2.89062 6.09375 2.89062 7H0C0 5.71875 0.28125 4.54688 0.84375 3.48438C1.40625 2.42188 2.23958 1.57812 3.34375 0.953125C4.44792 0.317708 5.80729 0 7.42188 0C8.85938 0 10.0885 0.255208 11.1094 0.765625C12.1302 1.26562 12.9115 1.97396 13.4531 2.89062C14.0052 3.79688 14.2812 4.85938 14.2812 6.07812C14.2812 6.74479 14.1667 7.42188 13.9375 8.10938C13.7188 8.78646 13.4115 9.46354 13.0156 10.1406C12.6302 10.8177 12.1771 11.4844 11.6562 12.1406C11.1458 12.7969 10.599 13.4427 10.0156 14.0781L3.92188 20.6875H15.3281Z" fill="white" fill-opacity="0.8"/>
<path d="M33.7969 15.4062V17.7812H17.3594V16.0781L27.5469 0.3125H29.9062L27.375 4.875L20.6406 15.4062H33.7969ZM30.625 0.3125V23.0625H27.7344V0.3125H30.625Z" fill="white" fill-opacity="0.8"/>
<path d="M50.7656 16.9062C50.7656 18.2917 50.4427 19.4688 49.7969 20.4375C49.1615 21.3958 48.2969 22.125 47.2031 22.625C46.1198 23.125 44.8958 23.375 43.5312 23.375C42.1667 23.375 40.9375 23.125 39.8438 22.625C38.75 22.125 37.8854 21.3958 37.25 20.4375C36.6146 19.4688 36.2969 18.2917 36.2969 16.9062C36.2969 16 36.4688 15.1719 36.8125 14.4219C37.1667 13.6615 37.6615 13 38.2969 12.4375C38.9427 11.875 39.7031 11.4427 40.5781 11.1406C41.4635 10.8281 42.4375 10.6719 43.5 10.6719C44.8958 10.6719 46.1406 10.9427 47.2344 11.4844C48.3281 12.0156 49.1875 12.75 49.8125 13.6875C50.4479 14.625 50.7656 15.6979 50.7656 16.9062ZM47.8594 16.8438C47.8594 16 47.6771 15.2552 47.3125 14.6094C46.9479 13.9531 46.4375 13.4427 45.7812 13.0781C45.125 12.7135 44.3646 12.5312 43.5 12.5312C42.6146 12.5312 41.849 12.7135 41.2031 13.0781C40.5677 13.4427 40.0729 13.9531 39.7188 14.6094C39.3646 15.2552 39.1875 16 39.1875 16.8438C39.1875 17.7188 39.3594 18.4688 39.7031 19.0938C40.0573 19.7083 40.5573 20.1823 41.2031 20.5156C41.8594 20.8385 42.6354 21 43.5312 21C44.4271 21 45.1979 20.8385 45.8438 20.5156C46.4896 20.1823 46.9844 19.7083 47.3281 19.0938C47.6823 18.4688 47.8594 17.7188 47.8594 16.8438ZM50.2344 6.23438C50.2344 7.33854 49.9427 8.33333 49.3594 9.21875C48.776 10.1042 47.9792 10.8021 46.9688 11.3125C45.9583 11.8229 44.8125 12.0781 43.5312 12.0781C42.2292 12.0781 41.0677 11.8229 40.0469 11.3125C39.0365 10.8021 38.2448 10.1042 37.6719 9.21875C37.099 8.33333 36.8125 7.33854 36.8125 6.23438C36.8125 4.91146 37.099 3.78646 37.6719 2.85938C38.2552 1.93229 39.0521 1.22396 40.0625 0.734375C41.0729 0.244792 42.224 0 43.5156 0C44.8177 0 45.974 0.244792 46.9844 0.734375C47.9948 1.22396 48.7865 1.93229 49.3594 2.85938C49.9427 3.78646 50.2344 4.91146 50.2344 6.23438ZM47.3438 6.28125C47.3438 5.52083 47.1823 4.84896 46.8594 4.26562C46.5365 3.68229 46.0885 3.22396 45.5156 2.89062C44.9427 2.54688 44.276 2.375 43.5156 2.375C42.7552 2.375 42.0885 2.53646 41.5156 2.85938C40.9531 3.17188 40.5104 3.61979 40.1875 4.20312C39.875 4.78646 39.7188 5.47917 39.7188 6.28125C39.7188 7.0625 39.875 7.74479 40.1875 8.32812C40.5104 8.91146 40.9583 9.36458 41.5312 9.6875C42.1042 10.0104 42.7708 10.1719 43.5312 10.1719C44.2917 10.1719 44.9531 10.0104 45.5156 9.6875C46.0885 9.36458 46.5365 8.91146 46.8594 8.32812C47.1823 7.74479 47.3438 7.0625 47.3438 6.28125Z" fill="white" fill-opacity="0.8"/>
</svg>
