<svg width="24" height="24" viewBox="0 0 24 24" fill="none" xmlns="http://www.w3.org/2000/svg">
<g opacity="0.8">
<path d="M21.546 7.93949C21.2647 7.65828 20.8832 7.50031 20.4855 7.50031C20.0877 7.50031 19.7063 7.65828 19.425 7.93949L12 15.3645L4.57501 7.93949C4.2921 7.66625 3.9132 7.51506 3.51991 7.51847C3.12661 7.52189 2.75039 7.67964 2.47228 7.95776C2.19417 8.23587 2.03642 8.61209 2.033 9.00538C2.02958 9.39868 2.18077 9.77758 2.45401 10.0605L10.9395 18.546C11.2208 18.8272 11.6023 18.9852 12 18.9852C12.3977 18.9852 12.7792 18.8272 13.0605 18.546L21.546 10.0605C21.8272 9.77919 21.9852 9.39773 21.9852 8.99998C21.9852 8.60224 21.8272 8.22078 21.546 7.93949Z" fill="white"/>
</g>
</svg>
