<svg width="20" height="20" viewBox="0 0 20 20" fill="none" xmlns="http://www.w3.org/2000/svg">
<g opacity="0.8">
<path d="M13.3837 17.955C13.6181 17.7206 13.7497 17.4027 13.7497 17.0713C13.7497 16.7398 13.6181 16.4219 13.3837 16.1875L7.19624 10L13.3837 3.81252C13.6114 3.57676 13.7374 3.26101 13.7346 2.93326C13.7317 2.60552 13.6003 2.292 13.3685 2.06024C13.1368 1.82848 12.8232 1.69702 12.4955 1.69418C12.1677 1.69133 11.852 1.81732 11.6162 2.04502L4.54499 9.11626C4.31065 9.35067 4.17901 9.66855 4.17901 10C4.17901 10.3315 4.31065 10.6493 4.54499 10.8838L11.6162 17.955C11.8507 18.1893 12.1685 18.321 12.5 18.321C12.8314 18.321 13.1493 18.1893 13.3837 17.955Z" fill="white"/>
</g>
</svg>
